<?xml version="1.0" encoding="utf-8"?>
<!-- Generator: Adobe Illustrator 26.1.0, SVG Export Plug-In . SVG Version: 6.00 Build 0)  -->
<svg version="1.1" id="Layer_1" xmlns="http://www.w3.org/2000/svg" xmlns:xlink="http://www.w3.org/1999/xlink" x="0px" y="0px"
	 viewBox="0 0 306.9 129.7" style="enable-background:new 0 0 306.9 129.7;" xml:space="preserve">
<style type="text/css">
	.st0{fill:#E2E2D9;}
	.st1{fill:#EEEEE9;}
	.st2{fill:#F7F7F5;}
	.st3{fill:#F8F8F6;}
	.st4{fill-rule:evenodd;clip-rule:evenodd;fill:#FE9400;}
	.st5{fill-rule:evenodd;clip-rule:evenodd;fill:#E68500;}
	.st6{fill-rule:evenodd;clip-rule:evenodd;fill:#FFC901;}
	.st7{fill-rule:evenodd;clip-rule:evenodd;fill:#FFFFFF;}
	.st8{fill-rule:evenodd;clip-rule:evenodd;fill:#FBAA00;}
	.st9{fill-rule:evenodd;clip-rule:evenodd;}
	.st10{fill-rule:evenodd;clip-rule:evenodd;fill:#F6E977;}
	.st11{fill:#F28D32;}
	.st12{fill:#FAB533;}
	.st13{opacity:0.5;}
	.st14{fill:#FDFDF7;}
</style>
<g>
	<g>
		<path class="st0" d="M79.1,78.9c-0.6-2.5-2.1-4.9-3.3-7.1c-0.4-0.8-2.3-5.1-3.6-4.7c-0.9,0.3-1,1.7-1,2.9
			c-0.2,0.6-0.3,1.1-0.3,1.7c0,1.2,0.1,2.5,0.3,3.7c0.2,1.4,0.7,2.7,1.3,3.9c0.3,0.6,0.8,1.8,1.5,2.1c0.2,0.1,0.5-0.1,0.5-0.3
			c0.2-1.3,0.1-2.7,0.1-4.1c0.4,1.3,1,2.7,1.5,3.9c0.6,1.2,1.3,2.4,2.2,3.4c0.5,0.6,1,1.5,1.8,2c0.2,0.1,0.4-0.1,0.4-0.3
			C80.8,83.5,79.7,81.3,79.1,78.9z"/>
		<path class="st0" d="M93,82.2c-0.7-2.5-2.3-5.1-3.8-7.1c-1.9-2.4-4-4.9-6.6-6.6c-1-0.6-2-1.5-3.1-1.9c-0.4-0.1-1.7-0.9-2.1-0.5
			c-0.4,0.3-0.4,0.9-0.2,1.6c0,0,0,0,0,0c0,0,0,0,0,0c0,0.2,0.1,0.3,0.1,0.5c1.1,3.8,2.8,7.4,5.7,10.1c1.3,1.3,3.1,2.3,4.8,3.1
			c1,0.5,2.1,0.9,3.1,1.2c0.6,0.2,1.2,0.5,1.7,0.3C92.9,82.8,93.1,82.4,93,82.2z"/>
		<path class="st0" d="M101.2,70.1c-0.6-0.8-1.2-1.5-2.1-2c-2.2-1.2-4.6-2.4-6.9-3.5c-2.1-1-4.3-1.9-6.6-2.5
			c-0.9-0.3-3.5-1.3-4.2-0.3c-0.3,0.4,0,0.7,0.3,0.6c2.5,7.8,12.6,11,20,9.2c0.1,0,0.2-0.2,0.2-0.3C102,70.7,101.6,70.5,101.2,70.1z
			"/>
		<path class="st0" d="M104.6,60c-1.2-0.6-2.6-1.1-3.9-1.6c-1.4-0.5-2.8-0.9-4.2-1.2c-1.3-0.3-2.6-0.8-3.9-0.9
			c-2.1-0.2-3.7,0.4-4.9,2.3c-0.4,0.6-0.3,1.1,0,1.5c0,0,0,0.1,0,0.1c2.2,2.1,5.6,2.6,8.5,2.7c1.9,0.1,3.8-0.3,5.6-0.5
			c1.3-0.1,2.9-0.3,4-1c0.1-0.1,0.2-0.2,0.2-0.4C105.9,60.4,105.1,60.2,104.6,60z"/>
		<path class="st0" d="M117.1,52.6c-1.3-0.9-3.3-1.1-4.9-1.3c-1.2-0.2-2.4-0.6-3.6-0.9c-1.3-0.3-2.6-0.4-4-0.7
			c-3-0.7-8.7-1.6-11,1.2c-0.1,0.1-0.1,0.2,0,0.2c0.1,0.1,0.2,0.3,0.3,0.4c0,0,0,0,0,0c0.1,0.1,0.2,0.1,0.3,0.2
			c0.1,0.1,0.2,0.1,0.3,0.2c3.3,2.1,7.5,3.4,11.2,3.7c2.2,0.2,4.4,0.3,6.6-0.3c1.5-0.4,3.8-1.1,4.8-2.4
			C117.2,53,117.3,52.7,117.1,52.6z"/>
		<path class="st0" d="M125.2,42.6c-0.7-0.6-1.8-0.7-2.7-0.8c-1.5-0.2-3-0.3-4.4-0.5c-3.3-0.6-6.5-0.7-9.8-0.8c-1.6,0-3.3,0-4.9,0.1
			c-1,0.1-2.4,0.2-3.2,0.9c-0.9,0.9-0.8,1.6-0.2,2.2c0,0,0,0.1,0,0.1c3.9,2.2,9,2.8,13.4,3c2.3,0.1,4.8-0.4,7-1.1
			c1.6-0.5,3.7-1.4,4.9-2.7C125.2,42.9,125.3,42.7,125.2,42.6z"/>
		<path class="st0" d="M134.1,32c-0.5-0.9-2.5-0.9-3.4-1.2c-1.6-0.4-3.2-0.7-4.8-0.8c-3.8-0.3-7.7,0-11.4,0.3
			c-2.9,0.2-6.9,0.6-9.2,2.6c-1.5,1.2-0.6,2.4,0.6,3.1c0,0,0,0,0,0.1c0.1,0,0.2,0,0.3,0.1c0.5,0.2,1,0.4,1.5,0.5
			c0.1,0,0.1,0,0.2-0.1c1.7,0.3,3.5,0.3,5.2,0.5c2.9,0.2,5.9,0,8.8-0.2c2.4-0.1,4.7-0.5,7-1.3c1.8-0.6,4.2-1.5,5.3-3.1
			C134.2,32.2,134.2,32.1,134.1,32z"/>
		<path class="st0" d="M83.7,77.8c-1.3-2.8-3.9-5.8-7.1-6.3c-0.2,0-0.4,0.1-0.4,0.3c-0.6,1.5,0.5,3.4,1.1,4.8c1.3,3,2.9,5.7,4.8,8.4
			c0.7,1,1.8,2.6,2.8,3.2c0.1,0.1,0.3-0.1,0.3-0.2C85.7,84.6,85.1,80.9,83.7,77.8z"/>
		<path class="st0" d="M97.4,77.1c-0.6-1.2-1.3-2.3-2.2-3.3c-1.5-1.6-3.3-3-5.1-4.3c-1.6-1.1-3.9-2.4-5.9-2.6
			c-4.5-0.3-0.2,4.8,1.2,6c0,0,0,0,0,0c2.3,3,5.4,5.1,9.3,5.6c0.5,0.1,2.8,0.6,3-0.3C97.9,77.9,97.6,77.4,97.4,77.1z"/>
		<path class="st0" d="M104,66.8c-0.4-1-2.1-2.1-2.9-2.7c-1.6-1.2-3.4-2.2-5.2-3c-1.8-0.8-3.8-1.2-5.8-1.4c-1-0.1-2.9-0.4-3.8,0.2
			c-0.1,0.1-0.2,0.2-0.2,0.3c0.4,1.1,1.5,2.1,2.5,2.7c0,0,0.1,0,0.1,0c1.5,1.3,3.3,2.3,5.2,3.1c2.8,1.1,6.8,1.5,9.8,1.2
			C103.9,67.2,104.1,67,104,66.8z"/>
		<path class="st0" d="M110.8,56.8c-1.4-0.7-2.8-1.3-4.3-1.9c-3-1.3-5.9-2.4-9.2-2.7C95.4,52,92,52,90.6,53.6
			c-0.7,0.8,1,1.9,2.4,2.5c2.6,1.7,5.4,2.8,8.5,3.4c2,0.4,4.1,0.1,6.1-0.2c1.5-0.2,3.5-0.4,4.8-1.1c0.1-0.1,0.2-0.2,0.2-0.4
			C112.4,57.3,111.3,57.1,110.8,56.8z"/>
		<path class="st0" d="M121.9,48.2c-0.9-0.8-2.6-1.1-3.7-1.6c-1.3-0.6-2.7-1.1-4.1-1.5c-3-1-6.4-1.5-9.6-1.7c-1.7-0.1-3.4,0-5,0.3
			c-1,0.2-2.2,0.3-3,1c-0.3,0.2-1.1,0.6-0.9,1.2c0.1,0.2,0.2,0.4,0.3,0.6c0,0,0,0,0,0c0,0-0.1,0,0,0.1c1.4,1.7,3.6,2.9,5.5,3.9
			c2.3,1.2,5.1,1.7,7.6,2c2.6,0.2,5-0.1,7.4-0.6c1.8-0.4,4.4-1.4,5.4-3.1C122,48.5,122.1,48.3,121.9,48.2z"/>
		<path class="st0" d="M130,37.9c-5.2-2.9-11.6-2.6-17.3-2.5c-2.9,0.1-6.2,1-8.6,2.6c-0.8,0.5-1.6,1.4-1.3,2.1
			c-0.2-0.1-0.4-0.2-0.7-0.3c-0.1,0-0.1,0.1-0.1,0.1c1.9,1.3,4.4,1.7,6.7,2.1c2.5,0.4,5,0.5,7.6,0.3c2.6-0.1,5.2-0.5,7.7-1
			c1.9-0.4,4.9-1.2,6-2.9C130.1,38.3,130.2,38,130,37.9z"/>
		<path class="st0" d="M137.1,27c-0.9-0.8-2.9-0.9-4-1.1c-1.8-0.4-3.8-0.3-5.6-0.3c-3.8,0.1-7.4,0.1-11.2,0.8
			c-2.5,0.5-6.1,1.5-7.4,3.9c-0.6,1,0.8,1.6,2.2,2c-0.3,0-0.7,0-1-0.1c0,0-0.1,0.1,0,0.1c4.7,1,9.9,0.6,14.6,0
			c2.5-0.3,4.9-0.9,7.2-1.8c1.7-0.7,3.9-1.7,5.2-3C137.1,27.3,137.2,27.1,137.1,27z"/>
	</g>
	<g>
		<path class="st1" d="M114.2,28.7c-0.8-0.4-1.9-0.2-2.7-0.2c-1.5,0.1-3,0.2-4.4,0.4c-2.7,0.3-5.6,0.8-8.3,1.5
			c-2.6,0.7-5.3,1.4-7.7,2.6c-1.1,0.5-3.4,1.7-3.8,3c0,0.1,0,0.2,0.1,0.3c0.1,0.1,0.2,0.2,0.4,0.3c0,0,0,0.1,0,0.1
			c2.3,0.9,5.1,0.5,7.4,0.3c2.7-0.3,5.3-1,8-1.6c2.6-0.5,5-1.3,7.3-2.5c1.3-0.7,3.7-2.1,3.9-3.8C114.4,28.8,114.3,28.7,114.2,28.7z"
			/>
		<path class="st1" d="M106.9,42.1c-0.6-0.4-1.6-0.4-2.3-0.6c-1.3-0.4-3-0.4-4.3-0.5c-2.9-0.4-6-0.4-9-0.3c-2.2,0.1-4.9,0.6-6.6,2
			c-0.5,0.4-1.9,1.4-1.7,2.2c0,0,0,0.1,0,0.1c0,0,0,0,0,0c0,0.1,0.1,0.2,0.2,0.3c0.1,0.1,0.2,0,0.3,0c4.9,2.2,10.3,3.5,15.6,2.5
			c2.3-0.4,4.3-1.4,6.1-2.8C105.7,44.5,107.8,42.7,106.9,42.1z"/>
		<path class="st1" d="M97.3,53.6c-2-1-4.5-1.2-6.7-1.5c-2.6-0.3-5.1-0.9-7.7-1c-1.7,0-3.6,0.1-4.4,1.8c-0.4,0.7-0.4,1.2-0.2,1.6
			c0,0-0.1,0-0.1,0c0,0-0.1,0.1,0,0.1c0.1,0,0.2,0.1,0.2,0.1c0.2,0.2,0.6,0.4,1,0.6c0.1,0,0.1,0,0.1,0c1.8,0.8,3.6,1.7,5.6,2.1
			c2.5,0.5,5.1,0.9,7.7,0.6c2-0.2,4.3-1.1,6-2.2C99.9,54.8,97.8,53.9,97.3,53.6z"/>
		<path class="st1" d="M91.6,64c-1.8-1.6-3.9-2.5-6.1-3.3c-2.4-0.9-4.8-1.8-7.3-2.4c-2.3-0.5-3.9-0.4-5.8,0.9c-1,0.7-1,1.4,0,2
			c1,1.2,3,2.1,4.2,2.7c2.5,1.2,5,1.9,7.7,2.3C85.5,66.4,94.7,66.7,91.6,64z"/>
		<path class="st1" d="M85.7,74.9c-1.1-1.9-3.4-3.3-5.2-4.5c-2.3-1.5-4.8-2.8-7.3-4c-1.8-0.8-4.7-2.8-6.8-2c-1,0.3-2.6,1-2.6,2.2
			c-0.1-0.1-0.1-0.2-0.2-0.3c0,0,0,0,0,0c0.1,0.2,0.2,0.3,0.2,0.5c0,0,0,0.1,0,0.1c0,0.1,0.1,0.1,0.1,0.1c1,1.6,2.7,3,4.1,4.1
			c2.1,1.7,4.6,3.2,7.2,4c2.6,0.8,5.2,1.2,7.9,1C83.5,76,86.3,76,85.7,74.9z"/>
		<path class="st1" d="M109.6,34.8c-1.1-0.4-2.5-0.2-3.7-0.2c-1.5,0-2.9,0-4.4,0.2c-3.2,0.3-6.4,0.5-9.6,0.9
			c-2.6,0.3-4.4,1.4-5.8,3.6c-0.5,0.7-1.3,1.8-1.1,2.6c0,0,0,0.1,0,0.1c0,0,0,0,0,0c0.1,0.2,0.3,0.4,0.7,0.5c0.1,0,0.3,0,0.4-0.2
			c2.1,0.6,4.6,0.4,6.7,0.5c2.9,0.2,6-0.2,8.9-0.8c2.6-0.5,5-2,6.8-4C108.9,37.5,111.3,35.3,109.6,34.8z"/>
		<path class="st1" d="M102.6,49.4c-0.6-1-2.5-1.4-3.5-1.7c-1.9-0.6-3.7-1.1-5.7-1.6c-1.9-0.5-3.9-0.8-5.8-1
			c-0.9-0.1-2.3-0.5-3.3-0.3c0,0,0,0,0,0c0.1,0,0.1-0.2,0-0.2c-1.1,0.5-1.8,1.7-2.4,2.7c-0.6,1-1.5,2.6-1.6,3.8c0,0.1,0,0.2,0.1,0.2
			c1.5,0.8,3.6,0.8,5.2,1.3c2.2,0.7,4.5,0.8,6.8,0.9c3.6,0.1,7.7-0.9,10.1-3.8C102.7,49.7,102.7,49.5,102.6,49.4z"/>
		<path class="st1" d="M95.7,60.3c-1.7-2.8-5.4-3.9-8.3-4.9c-1.9-0.7-3.9-0.9-6-1.3c-0.6-0.1-1.1-0.2-1.6,0c0,0,0,0,0.1-0.1
			c0.1-0.1,0-0.2-0.1-0.1c-0.2,0.2-0.4,0.3-0.5,0.4c0,0-0.1,0-0.1,0.1c0,0,0,0,0,0c-1.4,1.1-3.1,2.1-4,3.6c-0.1,0.1-0.1,0.3,0,0.4
			c3.5,2.1,7,3.4,11.2,3.8c1.7,0.2,3.3,0.3,5-0.1c1.2-0.2,3.4-0.6,4.2-1.6C95.7,60.5,95.8,60.4,95.7,60.3z"/>
		<path class="st1" d="M87.9,68.8c-1.1-1-2.3-1.9-3.5-2.8c-2.1-1.5-4.7-2.3-6.9-3.6c-0.9-0.5-2-0.9-2.9-1.3
			c-0.6-0.2-1.2-0.6-1.7-0.2c-0.1,0.1-0.1,0.2-0.2,0.3c-0.7,0.4-1.4,1-2.1,1.5c-0.6,0.5-1.7,1-2.2,1.6c-0.7,1,1.7,2.5,2.2,2.8
			c4.2,2.9,9,4.5,14.1,4.1c0.7-0.1,3.8-0.2,4-1.2C88.7,69.5,88.3,69.1,87.9,68.8z"/>
	</g>
	<path class="st2" d="M89.6,31.5c0,0-3.7,1.3-5.7,4.9c-2,3.7-8.4,17.5-14.5,23.4c-6.1,5.9-7.1,5.3-7.1,5.3s-1,0.1-0.6,0.9
		c0.4,0.8,3.5,2.4,6.1,1.6c2.6-0.8,0.4-2.1,0.4-2.1s3.7,0.2,4-0.9c0.3-1.1-0.8-1.6-0.8-1.6s7.5-5.4,11.4-14.1
		c3.9-8.7,4.9-12,10.5-14.2c5.6-2.2,17.9-6.7,22.9-7c5-0.3,15-0.8,19.6-2.2c0,0,0.9-0.1,1.1-0.5c0.2-0.4-0.8-0.7-2.6-0.6
		c-1.8,0.1-16.4-0.6-20.9,0.4C109.1,25.8,89.6,31.5,89.6,31.5z"/>
	<path class="st1" d="M63.5,65.2c0,0,4.1-1.6,8.5-7.1c4.4-5.6,8.5-13.5,10.6-17.4c2.1-3.9,2.8-7.4,9.9-9.5
		c7.1-2.1,21.2-6.5,24.2-6.5c0,0-14.5,4.2-19.2,5.9c-4.7,1.6-8,2.9-10.7,6.4C84.1,40.5,76.1,63.2,63.5,65.2z"/>
	<path class="st3" d="M112.8,28.5c0,0,3,0.1-0.3,2.5c-5.3,3.9-13,5.4-19.5,6.2c0,0,14.7-3.3,18.7-6.7
		C113.5,29.2,112.8,28.5,112.8,28.5z"/>
	<path class="st3" d="M108.2,35.1c0,0,3.2,0.5-1.5,3.9c-5.4,3.8-11.9,5.2-16.3,4.8c0,0,11.7-2,16.7-6.3
		C108.8,36,108.2,35.1,108.2,35.1z"/>
	<path class="st3" d="M105.6,42.1c0,0,1,0.2,0.8,1.1c-0.2,0.8-4.6,4.2-11.6,4.9C94.8,48.1,106.4,44.7,105.6,42.1z"/>
	<path class="st3" d="M100.5,48.5c0,0,1.9,0.7,0.6,1.9c-1.3,1.2-5.3,2.9-8.7,3.1C92.5,53.6,102.6,50.6,100.5,48.5z"/>
	<path class="st3" d="M96.9,54c0,0,2.2,0.7,1.3,1.5C97.4,56.3,92,58,88.9,58C88.9,58,99.6,56,96.9,54z"/>
	<path class="st3" d="M93.7,59.2c0,0,2,1,1.1,1.7c-0.9,0.7-6.6,1.6-9.6,1.1C85.2,61.9,96,61.6,93.7,59.2z"/>
	<path class="st3" d="M90.4,63.6c0,0,1.9,1.2,0.9,1.8c-1,0.6-6.7,0.8-9.7,0C81.6,65.3,92.5,66.3,90.4,63.6z"/>
	<path class="st3" d="M87,68.3c0,0,1.9,1.2,0.9,1.8c-1,0.6-6.7,0.8-9.7,0C78.2,70.1,89,71,87,68.3z"/>
	<path class="st3" d="M84.3,73.3c0,0,1.2,1.8,0,2.1c-3.7,0.9-8.3-0.2-10.5-1.3C73.8,74,85.9,76.3,84.3,73.3z"/>
	<path class="st1" d="M136.1,26.8c0,0,0.7,0.3,0.2,0.8c-0.5,0.5-4.6,3.2-12.1,4C124.2,31.6,134.2,29.2,136.1,26.8z"/>
	<path class="st1" d="M133,32.1c0,0,0.7,0.3,0.1,0.8c-0.5,0.5-4.7,3.1-12.2,3.6C121,36.5,131,34.4,133,32.1z"/>
	<path class="st1" d="M129.1,38.1c0,0,0.6,0.4,0.1,0.8c-0.6,0.4-3.7,2.8-11.8,2.7C117.4,41.5,127,40.3,129.1,38.1z"/>
	<path class="st1" d="M124.5,42.5c0,0,0.6,0.4,0.1,0.8c-0.6,0.4-3.7,3.1-11.8,3C112.8,46.3,122.4,44.7,124.5,42.5z"/>
	<path class="st1" d="M121.4,48c0,0,0.6,0.4,0.1,0.8c-0.6,0.4-3.7,3.1-11.8,3C109.7,51.8,119.3,50.2,121.4,48z"/>
	<path class="st1" d="M116.2,52.7c0,0,0.5,0.4,0,0.7c-0.5,0.3-3.3,2.4-10.2,1.8C106.1,55.2,114.3,54.5,116.2,52.7z"/>
	<path class="st1" d="M111.8,57.5c0,0,0.5,0.4-0.1,0.6c-0.5,0.2-4.8,2.4-11.6,0.9C100.1,59,109.7,58.7,111.8,57.5z"/>
	<path class="st1" d="M105.4,60.6c0,0,0.5,0.4-0.1,0.6c-0.5,0.2-2.9,1.5-9.8,0.3C95.5,61.5,103.1,61.8,105.4,60.6z"/>
	<path class="st1" d="M103,66.4c0,0,1.3,0.6-0.2,0.6c-0.6,0-3.2,0.7-9.6-2.1C93.2,64.9,100.5,67,103,66.4z"/>
	<path class="st1" d="M101.1,70.9c0,0,1.3,0.6-0.2,0.6c-0.6,0-4.9,1.3-11.3-1.5C89.6,69.9,98.7,71.4,101.1,70.9z"/>
	<path class="st1" d="M92.1,82c0,0,0.9,1-0.4,0.4c-0.5-0.2-5-0.8-9.8-5.9C81.9,76.5,89.7,81.6,92.1,82z"/>
	<path class="st1" d="M96.5,77.9c0,0,1,0.9-0.4,0.5c-0.6-0.2-5.1-0.2-10.4-4.8C85.8,73.6,94.1,77.7,96.5,77.9z"/>
	<path class="st1" d="M84.8,86.9c0,0,0.2,1.4-0.6,0.1c-0.3-0.5-3.8-3.3-5.1-10.2C79.2,76.8,83,85.2,84.8,86.9z"/>
</g>
<g>
	<path class="st4" d="M11.7,48.4c1-1.1,2.1-2,3.3-2.7C9.2,44.6,4.7,41,1.5,35.1c-2.9-5.4-1.6-8.9,5-5.8c4.3,2,8.1,1.9,11.4-0.4
		c1.8,6.1,3,7.3,5.3,9.6c1.9,1.9,4.3,4.1,5.4,6.6c1.5,3.4,0.6,7.3-2.7,9.1c-4.9,2.5-14.6,2.6-16.4,0.2C8.5,53.2,8.9,51.4,11.7,48.4
		L11.7,48.4z"/>
	<path class="st5" d="M11.7,48.4c1-1.1,2.1-2,3.3-2.7C9.2,44.6,4.7,41,1.5,35.1c-0.1-0.2-0.3-0.5-0.4-0.7
		c5.5,7.4,11.6,10.9,18.5,10.5c-0.2,5.1,1.6,7.7,5.3,8c-1.8,0.2-3.2-0.2-4.4-1.3c-1.7,1.1-6.6,4.7-8.5,4.2c-1.2-0.3-2.2-0.7-2.6-1.3
		C8.5,53.2,8.9,51.4,11.7,48.4L11.7,48.4z"/>
	<path class="st6" d="M21,56c0-0.1-0.1-0.1-0.1-0.2c1.8-0.3,3.6-0.8,4.9-1.6c3.4-1.8,4.2-5.7,2.7-9.1c-1.1-2.5-3.4-4.8-5.4-6.6
		c-2.3-2.3-3.5-3.4-5.3-9.6c-0.1,0.1-0.2,0.1-0.2,0.2c3.7-9.6,9-16.1,15.9-19.6c12-6.1,32.6-3.7,41.8,6.5
		c9.5,10.6,10.1,27.1,2.3,38.3c-2.9,4.2-6.1,6.7-9.6,8.2c4.1,2,19.7,0.4,23.5-1.7c2.9-1.6,5.9-4.3,9.4-8.3c3.8-4.4,9.4-7.5,15-3
		c3.8,3.1,1.4,8.1,3.1,13.1c3.2,9.2,7,16.6,7.9,24.6c3.5,33.2-39.2,42.5-64.3,42.6c-25.2,0.1-50-8.1-56.5-23.3
		c-4.1-9.6-2.7-22.9,6.9-32.9c4.7-4.9,11.3-8,19.3-9.1C27,62.8,23.4,60.1,21,56L21,56z"/>
	<circle class="st7" cx="41.2" cy="31" r="6.1"/>
	<path class="st8" d="M37.7,89.1c-10.9,32.3,39,40.6,63.3,6.3C74.1,123.6,33.4,117.2,37.7,89.1L37.7,89.1z"/>
	<circle class="st9" cx="41.2" cy="31" r="3.8"/>
	<circle class="st7" cx="43.8" cy="28.5" r="1.4"/>
	<path class="st10" d="M58.6,17c2.3-1.9,12.4,6.5,8.3,9.9C62.9,30.2,56.3,18.9,58.6,17z"/>
</g>
<g>
	<path class="st11" d="M73,5.4c0,0-0.1,0.4-0.2,0.9C70.4,3.4,60.2,1.2,48,1.2c-12,0-22.1,2.1-24.7,5l0.2-1.4c-1.4,1-0.9,2.9-0.9,2.9
		c0,3.6,11.3,6.5,25.3,6.5c13.3,0,24.1-2.6,25.2-5.9C73.5,7.6,73.7,6.5,73,5.4z M48,11.8c-11.9,0-21.6-2-21.6-4.5
		c0-2.5,9.7-4.5,21.6-4.5c11.9,0,21.6,2,21.6,4.5C69.6,9.8,59.9,11.8,48,11.8z"/>
	<path class="st12" d="M48,0C34,0,22.7,2.9,22.7,6.5S34,13,48,13c14,0,25.3-2.9,25.3-6.5S62,0,48,0z M48,10.6
		c-11.9,0-21.6-2-21.6-4.5S36.1,1.5,48,1.5c11.9,0,21.6,2,21.6,4.5S59.9,10.6,48,10.6z"/>
	<g class="st13">
		<path class="st14" d="M42.8,0.7c0,0-0.6,0.1-1.6,0.2c-1,0.1-2.5,0.3-4.3,0.6c-1.8,0.3-3.8,0.6-6,1.2c-1.1,0.3-2.2,0.6-3.3,1
			C27.1,3.8,26.5,4,26,4.3c-0.9,0.5-1.7,1.4-1.3,2.6c0.5,1.3,2,2,3.2,2.4c2.1,0.8,4.1,1.3,5.9,1.7c1.8,0.4,3.2,0.7,4.3,0.8
			c1,0.2,1.6,0.2,1.6,0.2s-0.1,0-0.4,0c-0.3,0-0.7,0-1.2-0.1c-1-0.1-2.5-0.2-4.3-0.5c-0.9-0.2-1.9-0.3-2.9-0.6
			c-1-0.2-2.1-0.5-3.1-0.9c-0.5-0.2-1.1-0.4-1.6-0.6c-0.5-0.2-1.1-0.5-1.6-0.9c-0.5-0.4-1-0.9-1.1-1.7c-0.1-0.4,0-0.7,0.1-1.1
			c0.1-0.2,0.1-0.3,0.2-0.5C23.9,5,24,4.9,24.1,4.8c0.5-0.5,1-0.8,1.6-1.1c0.6-0.3,1.1-0.5,1.7-0.7c1.1-0.4,2.3-0.7,3.4-0.9
			c1.1-0.2,2.2-0.4,3.2-0.6c1-0.2,2-0.3,2.9-0.4c1.8-0.2,3.3-0.3,4.3-0.4C42.2,0.7,42.8,0.7,42.8,0.7z"/>
	</g>
</g>
<g>
	<g>
		<path class="st0" d="M79.7,87c-0.1-2.6-1.2-5.2-1.9-7.7c-0.2-0.9-1.2-5.5-2.6-5.3c-1,0.1-1.4,1.4-1.5,2.6c-0.3,0.5-0.5,1-0.6,1.6
			c-0.3,1.2-0.3,2.5-0.4,3.7c-0.1,1.4,0.2,2.8,0.6,4.1c0.2,0.7,0.5,1.9,1,2.4c0.2,0.2,0.5,0,0.6-0.2c0.5-1.3,0.7-2.7,0.9-4
			c0.1,1.4,0.4,2.8,0.8,4.1c0.3,1.3,0.8,2.6,1.5,3.8c0.4,0.7,0.7,1.7,1.3,2.3c0.2,0.2,0.4-0.1,0.5-0.2C80.4,91.8,79.8,89.4,79.7,87z
			"/>
		<path class="st0" d="M92.7,92.9c-0.2-2.6-1.2-5.5-2.3-7.8c-1.4-2.8-3-5.6-5.2-7.8c-0.8-0.8-1.7-1.9-2.7-2.5
			c-0.3-0.2-1.5-1.2-2-0.9c-0.4,0.3-0.6,0.9-0.6,1.5c0,0,0,0,0,0c0,0,0,0,0,0c0,0.2,0,0.3,0,0.5c0.3,4,1.3,7.8,3.6,11.1
			c1.1,1.5,2.6,2.9,4.1,3.9c0.9,0.7,1.8,1.3,2.8,1.8c0.5,0.3,1,0.7,1.6,0.6C92.4,93.5,92.7,93.2,92.7,92.9z"/>
		<path class="st0" d="M103.1,82.7c-0.4-0.9-0.9-1.7-1.7-2.3c-1.9-1.7-4-3.3-6-4.8c-1.9-1.4-3.9-2.7-6-3.8c-0.9-0.4-3.1-2-4.1-1.1
			c-0.4,0.3-0.1,0.7,0.2,0.7c0.9,8.1,10.2,13.3,17.8,12.9c0.2,0,0.3-0.2,0.3-0.3C103.7,83.5,103.3,83.2,103.1,82.7z"/>
		<path class="st0" d="M108.4,73.4c-1.1-0.9-2.3-1.6-3.5-2.3c-1.2-0.8-2.6-1.4-3.9-2c-1.2-0.5-2.4-1.3-3.7-1.7
			c-2-0.6-3.7-0.3-5.2,1.3c-0.5,0.5-0.5,1-0.3,1.5c0,0,0,0.1,0,0.1c1.8,2.5,5,3.7,7.8,4.3c1.8,0.4,3.7,0.5,5.6,0.6
			c1.3,0.1,2.9,0.3,4.2-0.2c0.1,0,0.2-0.2,0.2-0.3C109.5,74.1,108.8,73.8,108.4,73.4z"/>
		<path class="st0" d="M122.1,68.7c-1.1-1.2-3-1.7-4.5-2.2c-1.2-0.4-2.2-1.1-3.4-1.6c-1.2-0.5-2.5-0.9-3.7-1.5
			c-2.8-1.3-8.3-3.3-11-0.9c-0.1,0.1-0.1,0.1-0.1,0.2c0,0.2,0.1,0.3,0.2,0.5c0,0,0,0,0,0c0.1,0.1,0.2,0.2,0.3,0.2
			c0.1,0.1,0.1,0.2,0.2,0.2c2.8,2.7,6.7,4.8,10.3,5.8c2.1,0.6,4.3,1.1,6.5,1c1.5-0.1,3.9-0.3,5.1-1.4
			C122.1,69,122.2,68.8,122.1,68.7z"/>
		<path class="st0" d="M131.9,60.4c-0.6-0.8-1.6-1-2.5-1.3c-1.4-0.5-2.9-0.9-4.2-1.4c-3.1-1.2-6.3-2-9.5-2.7
			c-1.6-0.4-3.2-0.7-4.9-0.9c-1-0.1-2.4-0.3-3.3,0.3c-1.1,0.7-1.1,1.5-0.6,2.1c0,0,0,0.1,0,0.1c3.4,2.9,8.2,4.5,12.5,5.5
			c2.2,0.5,4.8,0.6,7,0.3c1.7-0.2,3.9-0.7,5.3-1.7C131.9,60.7,132,60.5,131.9,60.4z"/>
		<path class="st0" d="M142.8,51.8c-0.3-0.9-2.3-1.4-3.1-1.8c-1.5-0.7-3-1.3-4.5-1.7c-3.6-1-7.5-1.5-11.3-2
			c-2.9-0.3-6.9-0.8-9.5,0.7c-1.7,0.9-1.1,2.2,0,3.1c0,0,0,0,0,0.1c0.1,0,0.2,0.1,0.2,0.1c0.4,0.3,0.9,0.6,1.4,0.7
			c0.1,0,0.1,0,0.2-0.1c1.6,0.6,3.4,1,5,1.5c2.8,0.8,5.7,1.2,8.6,1.6c2.4,0.3,4.7,0.4,7.1,0.1c1.9-0.3,4.4-0.6,5.8-2
			C142.8,52,142.9,51.9,142.8,51.8z"/>
		<path class="st0" d="M84.4,86.8c-0.7-3-2.7-6.5-5.8-7.6c-0.2-0.1-0.4,0-0.5,0.2c-0.9,1.4-0.2,3.4,0.1,4.9c0.7,3.2,1.8,6.2,3.1,9.2
			c0.5,1.1,1.2,2.9,2.2,3.7c0.1,0.1,0.3,0,0.4-0.1C85,93.9,85.2,90.1,84.4,86.8z"/>
		<path class="st0" d="M98,88.8c-0.4-1.3-0.8-2.5-1.5-3.7c-1.2-1.8-2.6-3.6-4.1-5.2C91,78.5,89,76.8,87,76.3c-4.3-1.2-1.2,4.7,0,6.1
			c0,0,0,0,0,0c1.7,3.4,4.3,6.1,8.1,7.3c0.4,0.1,2.6,1.2,3,0.3C98.3,89.7,98.1,89.2,98,88.8z"/>
		<path class="st0" d="M106.5,80c-0.2-1-1.6-2.4-2.3-3.2c-1.3-1.5-2.9-2.9-4.5-4c-1.6-1.1-3.5-1.9-5.4-2.5c-1-0.3-2.8-1-3.8-0.6
			c-0.1,0-0.2,0.2-0.2,0.3c0.1,1.2,1,2.4,1.9,3.1c0,0,0.1,0,0.1,0c1.2,1.6,2.7,2.9,4.5,4.1c2.6,1.7,6.3,2.8,9.4,3.1
			C106.3,80.4,106.5,80.2,106.5,80z"/>
		<path class="st0" d="M115.1,71.5c-1.2-1-2.5-1.9-3.8-2.7c-2.7-1.8-5.3-3.5-8.5-4.4c-1.9-0.5-5.2-1.3-6.9,0.1
			c-0.8,0.7,0.6,2.1,1.8,3c2.2,2.2,4.7,3.8,7.7,5c1.9,0.8,4,0.9,6,1c1.5,0.1,3.5,0.3,4.9-0.1c0.2-0.1,0.3-0.2,0.3-0.4
			C116.5,72.3,115.5,71.8,115.1,71.5z"/>
		<path class="st0" d="M127.7,65.2c-0.7-0.9-2.4-1.6-3.3-2.3c-1.2-0.9-2.5-1.6-3.7-2.3c-2.8-1.6-6-2.7-9.1-3.5
			c-1.6-0.4-3.3-0.6-5-0.7c-1,0-2.2-0.1-3.1,0.4c-0.3,0.2-1.2,0.4-1.1,1c0,0.2,0.1,0.4,0.2,0.6c0,0,0,0,0,0c0,0-0.1,0-0.1,0
			c1,1.9,3,3.6,4.7,4.9c2,1.7,4.6,2.7,7.1,3.4c2.5,0.7,4.9,0.9,7.4,0.9c1.9,0,4.6-0.5,5.9-2C127.7,65.5,127.8,65.4,127.7,65.2z"/>
		<path class="st0" d="M137.6,56.7c-4.5-3.8-10.8-4.8-16.5-5.9c-2.9-0.5-6.3-0.3-9,0.9c-0.9,0.4-1.9,1.1-1.7,1.8
			c-0.2-0.1-0.4-0.2-0.6-0.4c-0.1,0-0.1,0.1-0.1,0.1c1.6,1.7,4,2.5,6.2,3.3c2.4,0.9,4.8,1.4,7.4,1.8c2.6,0.4,5.1,0.6,7.8,0.5
			c1.9,0,5-0.2,6.5-1.7C137.6,57.1,137.7,56.9,137.6,56.7z"/>
		<path class="st0" d="M146.7,47.4c-0.7-1-2.6-1.4-3.7-1.9c-1.7-0.7-3.6-1.1-5.5-1.4c-3.7-0.6-7.3-1.4-11.1-1.4
			c-2.5,0-6.3,0.3-8,2.4c-0.7,0.9,0.4,1.7,1.8,2.4c-0.3-0.1-0.7-0.2-1-0.3c0,0-0.1,0.1-0.1,0.1c4.4,1.9,9.6,2.5,14.4,2.8
			c2.5,0.2,4.9,0,7.4-0.4c1.8-0.3,4.2-0.9,5.6-1.9C146.7,47.7,146.8,47.5,146.7,47.4z"/>
	</g>
	<g>
		<path class="st1" d="M123.9,44.6c-0.7-0.5-1.8-0.6-2.6-0.7c-1.5-0.2-2.9-0.4-4.4-0.5c-2.8-0.2-5.6-0.3-8.4-0.1
			c-2.7,0.2-5.5,0.4-8.1,1c-1.2,0.3-3.6,1-4.3,2.2c-0.1,0.1,0,0.2,0,0.3c0.1,0.1,0.2,0.2,0.3,0.3c0,0,0,0.1,0,0.1
			c2.1,1.3,4.9,1.5,7.2,1.7c2.7,0.3,5.4,0.1,8.2,0c2.6,0,5.2-0.3,7.7-1c1.4-0.4,4.1-1.3,4.5-2.9C124.1,44.8,124,44.7,123.9,44.6z"/>
		<path class="st1" d="M114.1,56.3c-0.5-0.5-1.5-0.7-2.1-1c-1.2-0.7-2.8-0.9-4.2-1.4c-2.8-0.9-5.8-1.5-8.7-2
			c-2.1-0.3-4.9-0.4-6.9,0.7c-0.5,0.3-2.1,1-2.1,1.8c0,0,0,0.1,0,0.1c0,0,0,0,0,0c0,0.1,0.1,0.2,0.1,0.3c0.1,0.1,0.2,0.1,0.3,0
			c4.3,3.1,9.4,5.5,14.8,5.5c2.3,0,4.5-0.6,6.6-1.6C112.5,58.4,114.9,57.1,114.1,56.3z"/>
		<path class="st1" d="M102.4,65.7c-1.8-1.4-4.2-2.1-6.3-2.8c-2.5-0.8-4.8-1.9-7.4-2.5c-1.6-0.4-3.5-0.6-4.7,0.9
			c-0.5,0.6-0.7,1.1-0.5,1.5c0,0,0,0-0.1,0c0,0-0.1,0,0,0.1c0.1,0.1,0.1,0.1,0.2,0.2c0.2,0.3,0.5,0.5,0.9,0.8c0,0,0.1,0,0.1,0
			c1.6,1.2,3.2,2.3,5,3.1c2.3,1,4.9,1.9,7.4,2.1c2,0.2,4.4-0.2,6.3-1C104.8,67.4,102.9,66.1,102.4,65.7z"/>
		<path class="st1" d="M94.8,74.8c-1.5-1.9-3.3-3.2-5.3-4.4c-2.2-1.4-4.4-2.7-6.7-3.7c-2.1-1-3.7-1.2-5.8-0.2
			c-1.1,0.5-1.2,1.2-0.4,1.9c0.7,1.4,2.5,2.6,3.6,3.4c2.2,1.6,4.6,2.9,7.1,3.8C88.4,76,97.4,78.1,94.8,74.8z"/>
		<path class="st1" d="M86.9,84.3c-0.7-2.1-2.7-3.9-4.2-5.4c-2-2-4.2-3.7-6.4-5.4c-1.6-1.2-4.1-3.6-6.3-3.3c-1.1,0.1-2.7,0.5-3,1.7
			c0-0.1-0.1-0.2-0.1-0.3c0,0,0,0,0,0c0,0.2,0.1,0.3,0.1,0.5c0,0,0,0.1,0,0.1c0,0.1,0,0.1,0.1,0.1c0.6,1.8,2.1,3.4,3.2,4.8
			c1.8,2,3.9,4,6.3,5.3c2.4,1.3,4.9,2.2,7.6,2.5C84.6,85,87.3,85.5,86.9,84.3z"/>
		<path class="st1" d="M118.2,49.7c-1.1-0.6-2.4-0.7-3.6-0.9c-1.4-0.3-2.9-0.5-4.4-0.7c-3.2-0.3-6.4-0.8-9.6-1
			c-2.6-0.2-4.6,0.5-6.4,2.4c-0.6,0.6-1.7,1.5-1.5,2.3c0,0,0,0.1,0,0.1c0,0,0,0,0,0c0.1,0.2,0.2,0.4,0.6,0.6c0.1,0.1,0.3,0,0.4-0.1
			c2,1,4.4,1.3,6.5,1.8c2.9,0.7,5.9,1,8.9,1c2.7,0,5.3-1,7.4-2.6C117,52.2,119.8,50.5,118.2,49.7z"/>
		<path class="st1" d="M108.5,62.7c-0.3-1.1-2.2-1.9-3.1-2.4c-1.7-0.9-3.4-1.9-5.2-2.7c-1.8-0.8-3.6-1.5-5.5-2.2
			c-0.9-0.3-2.1-0.9-3.2-1c0,0,0,0,0,0c0.1,0,0.1-0.2,0-0.2c-1.2,0.2-2.1,1.3-2.9,2.2c-0.8,0.9-2,2.2-2.3,3.4c0,0.1,0,0.2,0,0.2
			c1.3,1.1,3.4,1.5,4.9,2.3c2,1.1,4.2,1.7,6.5,2.2c3.5,0.8,7.7,0.6,10.7-1.8C108.5,62.9,108.6,62.8,108.5,62.7z"/>
		<path class="st1" d="M99.6,72c-1.1-3.1-4.5-4.8-7.1-6.4c-1.8-1.1-3.7-1.7-5.6-2.4c-0.5-0.2-1-0.4-1.5-0.4c0,0,0.1,0,0.1-0.1
			c0.1,0,0-0.2,0-0.1c-0.2,0.1-0.4,0.2-0.6,0.3c0,0-0.1,0-0.1,0c0,0,0,0,0,0c-1.6,0.8-3.4,1.5-4.7,2.8c-0.1,0.1-0.2,0.3-0.1,0.4
			c3.1,2.7,6.3,4.7,10.2,5.9c1.6,0.5,3.2,0.9,4.9,0.9c1.2,0,3.5,0.1,4.5-0.8C99.6,72.2,99.6,72.1,99.6,72z"/>
		<path class="st1" d="M90.3,78.8c-0.9-1.2-1.9-2.4-2.9-3.4c-1.8-1.9-4.1-3.2-6.1-4.9c-0.8-0.7-1.7-1.3-2.6-1.9
			c-0.5-0.4-1-0.8-1.7-0.5c-0.1,0.1-0.2,0.2-0.2,0.3c-0.8,0.3-1.6,0.7-2.4,1c-0.7,0.3-1.9,0.6-2.5,1.2c-0.9,0.8,1.2,2.8,1.6,3.2
			c3.5,3.7,7.9,6.1,13,6.8c0.7,0.1,3.7,0.6,4.2-0.4C91,79.6,90.6,79.2,90.3,78.8z"/>
	</g>
	<path class="st2" d="M99.3,42.6c0,0-3.9,0.5-6.6,3.7C90,49.5,81.1,61.8,74,66.4C66.8,71,66,70.2,66,70.2s-1-0.1-0.7,0.7
		c0.2,0.9,3,3,5.6,2.8c2.7-0.3,0.8-2,0.8-2s3.5,0.9,4.1-0.1c0.5-1.1-0.5-1.7-0.5-1.7s8.4-3.9,14-11.6c5.5-7.7,7.1-10.8,13.1-11.8
		c5.9-1.1,18.8-3.1,23.8-2.4c5,0.6,14.9,2.2,19.7,1.6c0,0,0.9,0.1,1.2-0.3c0.3-0.4-0.6-0.8-2.4-1.1c-1.8-0.2-16-3.8-20.6-3.7
		C119.5,40.8,99.3,42.6,99.3,42.6z"/>
	<path class="st1" d="M67,70.5c0,0,4.3-0.7,9.7-5.3c5.4-4.6,11-11.6,13.8-15c2.8-3.4,4.2-6.7,11.5-7.4c7.4-0.7,22.1-2.2,25-1.6
		c0,0-15,1.3-20,2c-4.9,0.7-8.4,1.3-11.7,4.2C92.1,50.3,79.8,71,67,70.5z"/>
	<path class="st3" d="M122.5,44.2c0,0,2.9,0.7-0.7,2.4c-6,2.8-13.8,2.8-20.3,2.3c0,0,15.1-0.4,19.7-2.9
		C123.1,44.9,122.5,44.2,122.5,44.2z"/>
	<path class="st3" d="M116.8,49.8c0,0,3,1.1-2.2,3.5c-6,2.7-12.7,2.8-17,1.5c0,0,11.9,0.3,17.6-2.9
		C117.2,50.8,116.8,49.8,116.8,49.8z"/>
	<path class="st3" d="M112.9,56.1c0,0,0.9,0.4,0.5,1.2c-0.4,0.8-5.3,3.2-12.3,2.5C101.1,59.8,113.2,58.8,112.9,56.1z"/>
	<path class="st3" d="M106.6,61.4c0,0,1.8,1.1,0.3,2c-1.5,0.9-5.7,1.8-9.1,1.3C97.8,64.7,108.2,63.9,106.6,61.4z"/>
	<path class="st3" d="M102,66c0,0,2,1.1,1,1.7c-1,0.7-6.6,1.2-9.7,0.6C93.4,68.4,104.2,68.6,102,66z"/>
	<path class="st3" d="M97.9,70.5c0,0,1.8,1.3,0.8,1.9c-1.1,0.5-6.7,0.3-9.7-0.8C89,71.5,99.7,73.3,97.9,70.5z"/>
	<path class="st3" d="M93.8,74.2c0,0,1.6,1.5,0.5,1.9c-1.1,0.4-6.7-0.5-9.5-1.9C84.8,74.2,95.3,77.2,93.8,74.2z"/>
	<path class="st3" d="M89.5,78.2c0,0,1.6,1.5,0.5,1.9c-1.1,0.4-6.7-0.5-9.5-1.9C80.5,78.2,91,81.2,89.5,78.2z"/>
	<path class="st3" d="M85.9,82.5c0,0,0.8,2-0.4,2c-3.8,0.2-8.1-1.8-10-3.4C75.5,81.2,86.8,85.7,85.9,82.5z"/>
	<path class="st1" d="M145.8,47c0,0,0.6,0.4,0,0.8c-0.6,0.4-5.1,2.3-12.6,1.6C133.2,49.4,143.4,49,145.8,47z"/>
	<path class="st1" d="M141.7,51.6c0,0,0.6,0.5,0,0.8c-0.6,0.3-5.2,2.1-12.6,1.2C129,53.6,139.3,53.5,141.7,51.6z"/>
	<path class="st1" d="M136.7,56.7c0,0,0.6,0.5-0.1,0.8c-0.6,0.3-4.1,2-12.1,0.3C124.5,57.8,134.2,58.5,136.7,56.7z"/>
	<path class="st1" d="M131.3,60.1c0,0,0.6,0.5-0.1,0.8c-0.6,0.3-4.2,2.3-12.2,0.7C119,61.6,128.8,61.9,131.3,60.1z"/>
	<path class="st1" d="M127.2,65c0,0,0.6,0.5-0.1,0.8c-0.6,0.3-4.2,2.3-12.2,0.7C115,66.4,124.7,66.7,127.2,65z"/>
	<path class="st1" d="M121.2,68.6c0,0,0.4,0.4-0.1,0.7c-0.5,0.2-3.7,1.7-10.3-0.2C110.8,69.1,119,69.9,121.2,68.6z"/>
	<path class="st1" d="M115.9,72.4c0,0,0.4,0.5-0.2,0.6c-0.6,0.1-5.2,1.4-11.6-1.4C104.2,71.5,113.6,73.2,115.9,72.4z"/>
	<path class="st1" d="M109,74.2c0,0,0.4,0.5-0.2,0.6c-0.6,0.1-3.1,0.9-9.7-1.6C99.1,73.1,106.6,74.9,109,74.2z"/>
	<path class="st1" d="M105.5,79.4c0,0,1.1,0.8-0.3,0.5c-0.6-0.1-3.3,0.1-9-3.9C96.2,76,103,79.5,105.5,79.4z"/>
	<path class="st1" d="M102.8,83.4c0,0,1.1,0.8-0.3,0.5c-0.6-0.1-5.1,0.3-10.8-3.7C91.7,80.2,100.3,83.5,102.8,83.4z"/>
	<path class="st1" d="M91.8,92.6c0,0,0.7,1.2-0.5,0.3c-0.5-0.3-4.8-1.7-8.4-7.7C82.9,85.2,89.5,91.7,91.8,92.6z"/>
	<path class="st1" d="M97,89.4c0,0,0.8,1.1-0.5,0.4c-0.5-0.3-5-1.2-9.2-6.7C87.3,83.1,94.6,88.7,97,89.4z"/>
	<path class="st1" d="M83.7,96c0,0,0,1.4-0.6,0c-0.2-0.5-3.1-4-3-11C80.1,85,82.3,94,83.7,96z"/>
</g>
<g>
	<g>
		<path d="M197.2,50.4c0,2.7-0.4,5-1.2,6.9c-0.8,2-2,3.6-3.5,4.9c-1.5,1.3-3.4,2.3-5.5,2.9c-2.2,0.6-4.6,1-7.3,1
			c-1.2,0-2.7-0.1-4.3-0.2c-1.7-0.1-3.3-0.3-4.9-0.6V35.5c1.6-0.3,3.3-0.5,5-0.6c1.7-0.1,3.2-0.2,4.4-0.2c2.6,0,5,0.3,7.1,0.9
			c2.1,0.6,4,1.5,5.5,2.8c1.5,1.3,2.7,2.9,3.5,4.9C196.7,45.3,197.2,47.7,197.2,50.4z M177.2,60.2c0.3,0,0.7,0.1,1.1,0.1
			c0.4,0,0.9,0,1.5,0c3.4,0,6-0.9,7.7-2.6c1.7-1.7,2.5-4.1,2.5-7.2c0-3.2-0.8-5.6-2.4-7.3c-1.6-1.7-4.1-2.5-7.6-2.5
			c-0.5,0-1,0-1.5,0c-0.5,0-1,0.1-1.4,0.1V60.2z"/>
		<path d="M222.3,65c-1.1,0.3-2.6,0.6-4.3,0.9c-1.8,0.3-3.6,0.4-5.6,0.4c-2,0-3.6-0.3-4.9-0.8c-1.3-0.5-2.4-1.3-3.1-2.2
			c-0.8-1-1.3-2.1-1.6-3.4c-0.3-1.3-0.5-2.8-0.5-4.4v-13h6.6v12.2c0,2.1,0.3,3.7,0.8,4.6c0.6,0.9,1.6,1.4,3.1,1.4c0.5,0,1,0,1.5-0.1
			c0.5,0,1-0.1,1.4-0.2v-18h6.6V65z"/>
		<path d="M227.4,54.1c0-1.7,0.3-3.3,0.8-4.8c0.5-1.5,1.3-2.8,2.4-3.9c1-1.1,2.3-2,3.8-2.6c1.5-0.6,3.2-1,5-1c1.2,0,2.4,0.1,3.4,0.3
			c1,0.2,2,0.5,3,1l-1.4,5.3c-0.6-0.2-1.3-0.4-2-0.6c-0.7-0.2-1.6-0.3-2.5-0.3c-1.9,0-3.4,0.6-4.4,1.8c-1,1.2-1.4,2.8-1.4,4.8
			c0,2.1,0.4,3.7,1.3,4.9c0.9,1.1,2.5,1.7,4.7,1.7c0.8,0,1.7-0.1,2.6-0.2c0.9-0.1,1.8-0.4,2.5-0.7l0.9,5.4c-0.8,0.3-1.7,0.6-2.9,0.8
			c-1.1,0.2-2.4,0.4-3.8,0.4c-2.1,0-4-0.3-5.5-1c-1.5-0.6-2.8-1.5-3.8-2.6c-1-1.1-1.7-2.4-2.2-3.9C227.6,57.5,227.4,55.9,227.4,54.1
			z"/>
		<path d="M257.2,50.9c0.6-0.7,1.3-1.4,2-2.2c0.7-0.8,1.4-1.5,2-2.3c0.6-0.7,1.3-1.5,1.8-2.1c0.6-0.7,1.1-1.3,1.5-1.8h7.8
			c-1.6,1.8-3.1,3.5-4.6,5.1c-1.5,1.6-3.1,3.3-4.9,5.1c0.9,0.8,1.8,1.8,2.7,2.9c0.9,1.1,1.9,2.3,2.7,3.4c0.9,1.2,1.7,2.4,2.4,3.5
			c0.7,1.2,1.4,2.3,1.9,3.2h-7.6c-0.5-0.8-1-1.6-1.6-2.5c-0.6-0.9-1.2-1.9-1.9-2.8s-1.4-1.8-2.1-2.7c-0.8-0.9-1.5-1.6-2.2-2.2v10.2
			h-6.6V32.5l6.6-1.1V50.9z"/>
	</g>
	<g>
		<path d="M187.4,98.4c-0.3-1.1-0.7-2.2-1.1-3.3c-0.4-1.1-0.8-2.2-1.2-3.4h-12c-0.4,1.1-0.8,2.2-1.2,3.4s-0.8,2.2-1.1,3.3h-7.2
			c1.2-3.3,2.2-6.4,3.3-9.2c1-2.8,2-5.4,3-7.9c1-2.5,2-4.8,2.9-7.1c1-2.2,2-4.4,3-6.5h6.5c1,2.1,2,4.3,3,6.5c1,2.2,2,4.6,3,7.1
			c1,2.5,2,5.1,3,7.9c1,2.8,2.1,5.9,3.3,9.2H187.4z M179.1,74.7c-0.2,0.4-0.4,1.1-0.7,1.8c-0.3,0.8-0.6,1.7-1,2.7
			c-0.4,1-0.8,2.1-1.3,3.3c-0.5,1.2-0.9,2.5-1.4,3.8h8.8c-0.5-1.3-0.9-2.6-1.4-3.8c-0.4-1.2-0.9-2.3-1.3-3.3c-0.4-1-0.7-1.9-1-2.7
			C179.6,75.7,179.3,75.1,179.1,74.7z"/>
		<path d="M198.3,75.9c1.1-0.3,2.6-0.6,4.3-0.9c1.8-0.3,3.6-0.4,5.6-0.4c2,0,3.6,0.3,4.9,0.8c1.3,0.5,2.4,1.2,3.1,2.2
			c0.8,0.9,1.3,2.1,1.6,3.4c0.3,1.3,0.5,2.7,0.5,4.3v13.1h-6.6V86c0-2.1-0.3-3.6-0.8-4.5c-0.6-0.9-1.6-1.3-3.1-1.3
			c-0.5,0-1,0-1.5,0.1c-0.5,0-1,0.1-1.4,0.2v18h-6.6V75.9z"/>
		<path d="M244.4,95.4c0,3.8-1,6.6-2.9,8.5c-1.9,1.8-4.9,2.8-9,2.8c-1.4,0-2.8-0.1-4.2-0.4c-1.4-0.3-2.7-0.6-3.9-1l1.1-5.5
			c1,0.4,2.1,0.7,3.3,1c1.1,0.2,2.4,0.4,3.9,0.4c1.9,0,3.2-0.4,4-1.2c0.8-0.8,1.2-1.9,1.2-3.2v-0.8c-0.7,0.3-1.4,0.6-2.2,0.7
			c-0.8,0.2-1.6,0.2-2.5,0.2c-3.2,0-5.7-1-7.4-2.9c-1.7-1.9-2.6-4.6-2.6-8c0-1.7,0.3-3.3,0.8-4.7c0.5-1.4,1.3-2.6,2.3-3.6
			c1-1,2.3-1.8,3.7-2.3c1.5-0.5,3.1-0.8,5-0.8c0.8,0,1.6,0,2.5,0.1c0.8,0.1,1.7,0.2,2.5,0.3c0.8,0.1,1.6,0.3,2.4,0.4
			c0.8,0.2,1.4,0.3,2,0.5V95.4z M230,86c0,3.7,1.5,5.5,4.5,5.5c0.7,0,1.3-0.1,1.9-0.3c0.6-0.2,1.1-0.4,1.5-0.6V80.1
			c-0.3-0.1-0.7-0.1-1.1-0.2c-0.4,0-1-0.1-1.5-0.1c-1.7,0-3,0.6-3.9,1.7C230.4,82.7,230,84.2,230,86z"/>
		<path d="M259.9,98.8c-1.9,0-3.5-0.2-4.7-0.6c-1.2-0.4-2.1-0.9-2.8-1.6c-0.7-0.7-1.2-1.5-1.4-2.5c-0.3-1-0.4-2.1-0.4-3.3V65.1
			l6.6-1.1v25.3c0,0.6,0,1.1,0.1,1.6c0.1,0.5,0.3,0.9,0.5,1.2c0.3,0.3,0.6,0.6,1.1,0.8c0.5,0.2,1.1,0.3,1.9,0.4L259.9,98.8z"/>
		<path d="M263.5,86.9c0-2.1,0.3-3.9,1-5.4c0.6-1.5,1.5-2.8,2.5-3.9c1-1,2.2-1.8,3.6-2.3c1.3-0.5,2.7-0.8,4.1-0.8c3.3,0,5.9,1,7.8,3
			c1.9,2,2.9,5,2.9,8.9c0,0.4,0,0.8,0,1.3c0,0.5-0.1,0.9-0.1,1.2h-14.9c0.1,1.4,0.8,2.4,1.9,3.2c1.1,0.8,2.6,1.2,4.5,1.2
			c1.2,0,2.4-0.1,3.6-0.3c1.2-0.2,2.1-0.5,2.9-0.8l0.9,5.4c-0.4,0.2-0.8,0.4-1.4,0.5c-0.6,0.2-1.2,0.3-2,0.5
			c-0.7,0.1-1.5,0.2-2.3,0.3s-1.7,0.1-2.5,0.1c-2.1,0-3.9-0.3-5.5-0.9c-1.5-0.6-2.8-1.5-3.8-2.5c-1-1.1-1.8-2.4-2.3-3.8
			C263.7,90.2,263.5,88.6,263.5,86.9z M279,84.4c0-0.6-0.1-1.1-0.3-1.6c-0.2-0.5-0.4-1-0.8-1.4c-0.3-0.4-0.8-0.8-1.3-1
			c-0.5-0.3-1.2-0.4-1.9-0.4c-0.7,0-1.4,0.1-1.9,0.4c-0.5,0.3-1,0.6-1.3,1c-0.4,0.4-0.6,0.9-0.8,1.4c-0.2,0.5-0.3,1.1-0.4,1.7H279z"
			/>
		<path d="M297.1,93.6c1.2,0,2.1-0.1,2.6-0.4c0.5-0.2,0.8-0.7,0.8-1.4c0-0.5-0.3-1-1-1.4c-0.6-0.4-1.6-0.8-3-1.3
			c-1-0.4-2-0.8-2.8-1.2c-0.8-0.4-1.6-0.9-2.1-1.5c-0.6-0.6-1-1.3-1.4-2.1c-0.3-0.8-0.5-1.8-0.5-2.9c0-2.2,0.8-3.9,2.4-5.2
			c1.6-1.3,3.8-1.9,6.7-1.9c1.4,0,2.8,0.1,4.1,0.4c1.3,0.3,2.3,0.5,3.1,0.8l-1.2,5.1c-0.8-0.3-1.6-0.5-2.5-0.7
			c-0.9-0.2-1.9-0.3-3-0.3c-2.1,0-3.1,0.6-3.1,1.7c0,0.3,0,0.5,0.1,0.7c0.1,0.2,0.3,0.4,0.5,0.6c0.3,0.2,0.6,0.4,1.1,0.6
			c0.5,0.2,1,0.5,1.7,0.7c1.4,0.5,2.6,1.1,3.6,1.6c0.9,0.5,1.7,1.1,2.2,1.7c0.5,0.6,0.9,1.3,1.1,2c0.2,0.7,0.3,1.6,0.3,2.6
			c0,2.3-0.9,4-2.6,5.2c-1.7,1.2-4.2,1.8-7.3,1.8c-2.1,0-3.8-0.2-5.2-0.5c-1.4-0.4-2.3-0.6-2.9-0.9l1.1-5.4c1.1,0.4,2.3,0.8,3.4,1
			C294.8,93.5,295.9,93.6,297.1,93.6z"/>
	</g>
</g>
</svg>
